<svg xmlns="http://www.w3.org/2000/svg" viewBox="0 0 100 100" width="100" height="100">
  <defs>
  <filter id="candle-ink" x="-20%" y="-20%" width="140%" height="140%" color-interpolation-filters="sRGB">
    <feTurbulence type="fractalNoise" baseFrequency="0.03" numOctaves="2" seed="471" result="warp"/>
    <feDisplacementMap in="SourceGraphic" in2="warp" scale="1.4" xChannelSelector="R" yChannelSelector="G" result="art"/>
    <feOffset in="art" dx="-3.5" dy="-4" result="shifted"/>
    <feComposite in="art" in2="shifted" operator="out" result="crescent"/>
    <feFlood flood-color="#151217" flood-opacity="0.3"/>
    <feComposite in2="crescent" operator="in" result="shade"/>
    <feTurbulence type="fractalNoise" baseFrequency="0.8" numOctaves="2" seed="476" result="noise"/>
    <feColorMatrix in="noise" type="matrix" values="0 0 0 0 0  0 0 0 0 0  0 0 0 0 0  0.55 0 0 0 -0.2" result="speck"/>
    <feComposite in="speck" in2="art" operator="in" result="grain"/>
    <feGaussianBlur in="art" stdDeviation="1.25" result="soft"/>
    <feColorMatrix in="soft" type="matrix" values="0 0 0 0 0.08  0 0 0 0 0.07  0 0 0 0 0.09  0 0 0 14 -1.3" result="line"/>
    <feGaussianBlur in="art" stdDeviation="4.5" result="haze"/>
    <feFlood flood-color="#f4c3ad" flood-opacity="0.9"/>
    <feComposite in2="haze" operator="in" result="glow"/>
    <feMerge>
      <feMergeNode in="glow"/><feMergeNode in="line"/><feMergeNode in="art"/>
      <feMergeNode in="shade"/><feMergeNode in="grain"/>
    </feMerge>
  </filter></defs>
  <g filter="url(#candle-ink)"><g transform="translate(50 50) scale(.92) translate(-50 -50)"><path d="M32 44 L68 44 L68 88 L32 88 Z" fill="#ddd6ca" /><path d="M32 44 L68 44 L68 54 C66 60 62 60 62 54 C62 64 56 66 56 56 C54 60 50 60 50 54 L32 54 Z" fill="#ffffff" /><path d="M50 44 L50 36" fill="none" stroke="#151217" stroke-width="2.6" stroke-linecap="round" stroke-linejoin="round" /><path d="M50 8 C58 18 62 26 58 32 C55 37 45 37 42 32 C38 26 42 18 50 8 Z" fill="#f4c3ad" /><path d="M50 20 C54 25 55 29 53 32 C51 34 49 34 47 32 C45 29 46 25 50 20 Z" fill="#ffe3d6" /><path d="M22 90 L78 90" fill="none" stroke="#4c4743" stroke-width="5" stroke-linecap="round" stroke-linejoin="round" /></g></g>
</svg>
