<svg xmlns="http://www.w3.org/2000/svg" viewBox="0 0 100 100" width="100" height="100">
  <defs>
  <filter id="candle-chalk" x="-10%" y="-10%" width="120%" height="120%" color-interpolation-filters="sRGB">
    <feTurbulence type="fractalNoise" baseFrequency="0.035" numOctaves="2" seed="263" result="warp"/>
    <feDisplacementMap in="SourceGraphic" in2="warp" scale="3.2" xChannelSelector="R" yChannelSelector="G" result="wobbly"/>
    <feTurbulence type="fractalNoise" baseFrequency="0.7" numOctaves="2" seed="270" result="noise"/>
    <feColorMatrix in="noise" type="matrix" values="0 0 0 0 0  0 0 0 0 0  0 0 0 0 0  3.2 0 0 0 -0.45" result="grain"/>
    <feComposite in="wobbly" in2="grain" operator="in" result="chalky"/>
    <!-- Soft plum rim so cream shapes still read on Telegram's light theme -->
    <feMorphology in="wobbly" operator="dilate" radius="1.4" result="fat"/>
    <feComposite in="fat" in2="wobbly" operator="out" result="ring"/>
    <feFlood flood-color="#4a3d55" flood-opacity=".6"/>
    <feComposite in2="ring" operator="in" result="rim"/>
    <feMerge><feMergeNode in="rim"/><feMergeNode in="chalky"/></feMerge>
  </filter></defs>
  <g filter="url(#candle-chalk)"><path d="M32 44 L68 44 L68 88 L32 88 Z" fill="#f1e6d6" /><path d="M32 44 L68 44 L68 54 C66 60 62 60 62 54 C62 64 56 66 56 56 C54 60 50 60 50 54 L32 54 Z" fill="#fff6e8" /><path d="M50 44 L50 36" fill="none" stroke="#2b2233" stroke-width="3" stroke-linecap="round" stroke-linejoin="round" /><path d="M50 8 C58 18 62 26 58 32 C55 37 45 37 42 32 C38 26 42 18 50 8 Z" fill="#ecc57a" /><path d="M50 20 C54 25 55 29 53 32 C51 34 49 34 47 32 C45 29 46 25 50 20 Z" fill="#e89aae" /><path d="M22 90 L78 90" fill="none" stroke="#c99a4e" stroke-width="5" stroke-linecap="round" stroke-linejoin="round" /></g>
</svg>
