<svg xmlns="http://www.w3.org/2000/svg" viewBox="0 0 100 100" width="100" height="100">
  <defs>
  <filter id="dagger-ink" filterUnits="userSpaceOnUse" x="-20" y="-20" width="140" height="140" color-interpolation-filters="sRGB">
    <feTurbulence type="fractalNoise" baseFrequency="0.03" numOctaves="2" seed="4232" result="warp"/>
    <feDisplacementMap in="SourceGraphic" in2="warp" scale="1.4" xChannelSelector="R" yChannelSelector="G" result="art"/>
    <feOffset in="art" dx="-3.5" dy="-4" result="shifted"/>
    <feComposite in="art" in2="shifted" operator="out" result="crescent"/>
    <feFlood flood-color="#151217" flood-opacity="0.3"/>
    <feComposite in2="crescent" operator="in" result="shade"/>
    <feTurbulence type="fractalNoise" baseFrequency="0.8" numOctaves="2" seed="4237" result="noise"/>
    <feColorMatrix in="noise" type="matrix" values="0 0 0 0 0  0 0 0 0 0  0 0 0 0 0  0.55 0 0 0 -0.2" result="speck"/>
    <feComposite in="speck" in2="art" operator="in" result="grain"/>
    <feGaussianBlur in="art" stdDeviation="1.25" result="soft"/>
    <feColorMatrix in="soft" type="matrix" values="0 0 0 0 0.08  0 0 0 0 0.07  0 0 0 0 0.09  0 0 0 14 -1.3" result="line"/>
    <feGaussianBlur in="art" stdDeviation="4.5" result="haze"/>
    <feFlood flood-color="#f4c3ad" flood-opacity="0"/>
    <feComposite in2="haze" operator="in" result="glow"/>
    <feMerge>
      <feMergeNode in="glow"/><feMergeNode in="line"/><feMergeNode in="art"/>
      <feMergeNode in="shade"/><feMergeNode in="grain"/>
    </feMerge>
  </filter></defs>
  <g filter="url(#dagger-ink)"><g transform="translate(50 50) scale(0.92) translate(-50 -50)"><g transform="rotate(28 50 50)"><path d="M50 96 L42 46 L58 46 Z" fill="#ddd6ca" /><path d="M50 50 L50 86" fill="none" stroke="#151217" stroke-width="2.2" stroke-linecap="round" stroke-linejoin="round" /><path d="M44 22 L56 22 L56 40 L44 40 Z" fill="#6e3346" /><rect x="26" y="38" width="48" height="9" rx="4.5" fill="#cfa963" /><g transform="translate(50 15) scale(0.2) translate(-50 -50)"><path d="M50 86 C26 70 10 54 12 36 C14 20 34 14 50 30 C66 14 86 20 88 36 C90 54 74 70 50 86 Z" fill="#cfa963" /></g></g></g></g>
</svg>
