<svg xmlns="http://www.w3.org/2000/svg" viewBox="0 0 100 100" width="100" height="100">
  <defs>
  <filter id="postcard-ink" filterUnits="userSpaceOnUse" x="-20" y="-20" width="140" height="140" color-interpolation-filters="sRGB">
    <feTurbulence type="fractalNoise" baseFrequency="0.03" numOctaves="2" seed="4998" result="warp"/>
    <feDisplacementMap in="SourceGraphic" in2="warp" scale="1.4" xChannelSelector="R" yChannelSelector="G" result="art"/>
    <feOffset in="art" dx="-3.5" dy="-4" result="shifted"/>
    <feComposite in="art" in2="shifted" operator="out" result="crescent"/>
    <feFlood flood-color="#151217" flood-opacity="0.3"/>
    <feComposite in2="crescent" operator="in" result="shade"/>
    <feTurbulence type="fractalNoise" baseFrequency="0.8" numOctaves="2" seed="5003" result="noise"/>
    <feColorMatrix in="noise" type="matrix" values="0 0 0 0 0  0 0 0 0 0  0 0 0 0 0  0.55 0 0 0 -0.2" result="speck"/>
    <feComposite in="speck" in2="art" operator="in" result="grain"/>
    <feGaussianBlur in="art" stdDeviation="1.25" result="soft"/>
    <feColorMatrix in="soft" type="matrix" values="0 0 0 0 0.08  0 0 0 0 0.07  0 0 0 0 0.09  0 0 0 14 -1.3" result="line"/>
    <feGaussianBlur in="art" stdDeviation="4.5" result="haze"/>
    <feFlood flood-color="#f4c3ad" flood-opacity="0"/>
    <feComposite in2="haze" operator="in" result="glow"/>
    <feMerge>
      <feMergeNode in="glow"/><feMergeNode in="line"/><feMergeNode in="art"/>
      <feMergeNode in="shade"/><feMergeNode in="grain"/>
    </feMerge>
  </filter></defs>
  <g filter="url(#postcard-ink)"><g transform="translate(50 50) scale(0.92) translate(-50 -50)"><g transform="rotate(-6 50 50)"><rect x="8" y="20" width="84" height="60" rx="3" fill="#ddd6ca" /><rect x="64" y="26" width="22" height="26" rx="1" fill="#b05a73" stroke="#ddd6ca" stroke-width="3" stroke-dasharray="2.5 2"/><g transform="translate(75 39) scale(0.16) translate(-50 -50)"><path d="M50 86 C26 70 10 54 12 36 C14 20 34 14 50 30 C66 14 86 20 88 36 C90 54 74 70 50 86 Z" fill="#ddd6ca" /></g><path d="M50 28 L50 72" fill="none" stroke="#151217" stroke-width="1.8" stroke-linecap="round" stroke-linejoin="round" /><path d="M16 34 L42 34 M16 44 L40 44 M16 54 L36 54" fill="none" stroke="#151217" stroke-width="2" stroke-linecap="round" stroke-linejoin="round" /><path d="M56 62 L84 62 M56 70 L78 70" fill="none" stroke="#151217" stroke-width="2" stroke-linecap="round" stroke-linejoin="round" /></g></g></g>
</svg>
